# xmcd
#
# Track frame offsets: 
#        150
#        11397
#        24464
#        37282
#        48344
#        60386
#        72618
#        82203
#        93231
#        103778
#        116211
#        128036
#        139881
#        149623
#        164373
#        177125
#        188870
#        201937
#        212985
#        223951
#        234390
#        245147
#        256919
#        269281
#        281741
#        294459
#
# Disc length: 4086 seconds
#
# Revision: 0
# Processed by: cddbd v1.5.1PL0 Copyright (c) Steve Scherf et al.
# Submitted via: ExactAudioCopy v0.95a4
#
DISCID=a20ff41a
DTITLE=Tex Ritter - High Noon
DYEAR=1900
DGENRE=Country
TTITLE0=High Noon
TTITLE1=Pecos Bill
TTITLE2=Dallas Darlin'
TTITLE3=Tehena, Timpson, Bob And Blair
TTITLE4=Rock And Rye
TTITLE5=The Eyes Of Texas Are Upon You
TTITLE6=Boogie Woogie Cowboy
TTITLE7=He's A Cowboy Auctioneer
TTITLE8=Tennessee Blues
TTITLE9=As Long As The River Flows On
TTITLE10=When My Blue Moon Turns To Gold
TTITLE11=When It's Springtime In The Rockies
TTITLE12=Buffalo Dream
TTITLE13=The Marshall's Daughter
TTITLE14=The San Antonio Story
TTITLE15=Let Me Go Devil
TTITLE16=The Long Black Rifle
TTITLE17=Brave Man
TTITLE18=Lovely Veil Of White
TTITLE19=The Best Time Of All
TTITLE20=Your Heart And My Heart Are One
TTITLE21=Prarie Home
TTITLE22=The Bandit
TTITLE23=High Noon
TTITLE24=High Noon
TTITLE25=High Noon
EXTD=
EXTT0=
EXTT1=
EXTT2=
EXTT3=
EXTT4=
EXTT5=
EXTT6=
EXTT7=
EXTT8=
EXTT9=
EXTT10=
EXTT11=
EXTT12=
EXTT13=
EXTT14=
EXTT15=
EXTT16=
EXTT17=
EXTT18=
EXTT19=
EXTT20=
EXTT21=
EXTT22=
EXTT23=
EXTT24=
EXTT25=
PLAYORDER=
